<svg width="1024" height="1024" viewBox="0 0 1024 1024" fill="none" xmlns="http://www.w3.org/2000/svg">
  <defs>
    <linearGradient id="bg" x1="128" y1="96" x2="896" y2="928" gradientUnits="userSpaceOnUse">
      <stop offset="0" stop-color="#F8FAFC"/>
      <stop offset="0.52" stop-color="#EAF6F4"/>
      <stop offset="1" stop-color="#ECF2FF"/>
    </linearGradient>
    <linearGradient id="core" x1="360" y1="304" x2="704" y2="704" gradientUnits="userSpaceOnUse">
      <stop offset="0" stop-color="#1677FF"/>
      <stop offset="0.48" stop-color="#13C2C2"/>
      <stop offset="1" stop-color="#52C41A"/>
    </linearGradient>
    <linearGradient id="node" x1="244" y1="212" x2="790" y2="808" gradientUnits="userSpaceOnUse">
      <stop offset="0" stop-color="#0F172A"/>
      <stop offset="1" stop-color="#2563EB"/>
    </linearGradient>
    <filter id="softShadow" x="64" y="64" width="896" height="896" filterUnits="userSpaceOnUse" color-interpolation-filters="sRGB">
      <feDropShadow dx="0" dy="28" stdDeviation="34" flood-color="#0F172A" flood-opacity="0.16"/>
    </filter>
    <filter id="lineGlow" x="140" y="140" width="744" height="744" filterUnits="userSpaceOnUse" color-interpolation-filters="sRGB">
      <feDropShadow dx="0" dy="0" stdDeviation="10" flood-color="#13C2C2" flood-opacity="0.22"/>
    </filter>
  </defs>

  <rect x="96" y="96" width="832" height="832" rx="184" fill="url(#bg)" filter="url(#softShadow)"/>
  <rect x="126" y="126" width="772" height="772" rx="158" stroke="#FFFFFF" stroke-width="24" stroke-opacity="0.86"/>

  <g filter="url(#lineGlow)" stroke-linecap="round">
    <path d="M512 268V380" stroke="#1677FF" stroke-width="30"/>
    <path d="M512 624V736" stroke="#52C41A" stroke-width="30"/>
    <path d="M268 512H380" stroke="#13C2C2" stroke-width="30"/>
    <path d="M624 512H736" stroke="#1677FF" stroke-width="30"/>
    <path d="M340 340L420 420" stroke="#2563EB" stroke-width="24"/>
    <path d="M684 340L604 420" stroke="#13C2C2" stroke-width="24"/>
    <path d="M340 684L420 604" stroke="#52C41A" stroke-width="24"/>
    <path d="M684 684L604 604" stroke="#2563EB" stroke-width="24"/>
  </g>

  <g>
    <rect x="430" y="238" width="164" height="124" rx="42" fill="#FFFFFF"/>
    <rect x="462" y="276" width="100" height="22" rx="11" fill="#1677FF"/>
    <rect x="462" y="316" width="62" height="18" rx="9" fill="#D8E7FF"/>

    <rect x="430" y="662" width="164" height="124" rx="42" fill="#FFFFFF"/>
    <rect x="462" y="700" width="100" height="22" rx="11" fill="#52C41A"/>
    <rect x="462" y="740" width="62" height="18" rx="9" fill="#DCF7D2"/>

    <rect x="238" y="430" width="124" height="164" rx="42" fill="#FFFFFF"/>
    <rect x="276" y="462" width="22" height="100" rx="11" fill="#13C2C2"/>
    <rect x="316" y="462" width="18" height="62" rx="9" fill="#D8F6F6"/>

    <rect x="662" y="430" width="124" height="164" rx="42" fill="#FFFFFF"/>
    <rect x="700" y="462" width="22" height="100" rx="11" fill="#2563EB"/>
    <rect x="740" y="462" width="18" height="62" rx="9" fill="#DDE8FF"/>
  </g>

  <g>
    <circle cx="332" cy="332" r="54" fill="#FFFFFF"/>
    <circle cx="332" cy="332" r="24" fill="#2563EB"/>
    <circle cx="692" cy="332" r="54" fill="#FFFFFF"/>
    <circle cx="692" cy="332" r="24" fill="#13C2C2"/>
    <circle cx="332" cy="692" r="54" fill="#FFFFFF"/>
    <circle cx="332" cy="692" r="24" fill="#52C41A"/>
    <circle cx="692" cy="692" r="54" fill="#FFFFFF"/>
    <circle cx="692" cy="692" r="24" fill="#1677FF"/>
  </g>

  <g filter="url(#softShadow)">
    <circle cx="512" cy="512" r="164" fill="url(#core)"/>
    <circle cx="512" cy="512" r="118" fill="#FFFFFF" fill-opacity="0.18"/>
    <path d="M512 392C578.274 392 632 445.726 632 512C632 578.274 578.274 632 512 632C445.726 632 392 578.274 392 512C392 445.726 445.726 392 512 392Z" stroke="#FFFFFF" stroke-width="28" stroke-opacity="0.92"/>
    <path d="M512 438V512L568 568" stroke="#FFFFFF" stroke-width="34" stroke-linecap="round" stroke-linejoin="round"/>
    <circle cx="512" cy="512" r="30" fill="#FFFFFF"/>
  </g>
</svg>
